REM DIRINDEX 1\6,1\2\7,1\2\8,1\2\9,1\3\10,1\3\11,1\4\12,1\4\13,1\4\14,1\5\15,1\5\16,1\5\17
REM DIRNAME folder01,folder02,folder03,folder04,folder05,folder06,folder07,folder08,folder09,folder10,folder11,folder12,folder13,folder14,folder15,folder16,folder17
TITLE ""
FILE "3Q_t_0048-0063.mp3" MP3
  TRACK 01 AUDIO
    TITLE "10:cjc041_1699"
    INDEX 01 00:00:00
  TRACK 02 AUDIO
    TITLE "0:"
    INDEX 01 00:01:05
  TRACK 03 AUDIO
    TITLE "11:cjc041_1700"
    INDEX 01 00:01:58
  TRACK 04 AUDIO
    TITLE "0:"
    INDEX 01 00:02:67
  TRACK 05 AUDIO
    TITLE "10:cjc041_1701"
    INDEX 01 00:03:49
  TRACK 06 AUDIO
    TITLE "0:"
    INDEX 01 00:04:70
  TRACK 07 AUDIO
    TITLE "11:cjc041_1702"
    INDEX 01 00:05:44
  TRACK 08 AUDIO
    TITLE "0:"
    INDEX 01 00:06:71
  TRACK 09 AUDIO
    TITLE "10:cjc041_1703"
    INDEX 01 00:07:52
  TRACK 10 AUDIO
    TITLE "0:"
    INDEX 01 00:09:20
  TRACK 11 AUDIO
    TITLE "11:cjc041_1704"
    INDEX 01 00:09:65
  TRACK 12 AUDIO
    TITLE "0:"
    INDEX 01 00:11:33
  TRACK 13 AUDIO
    TITLE "10:cjc041_1705"
    INDEX 01 00:12:05
  TRACK 14 AUDIO
    TITLE "0:"
    INDEX 01 00:13:26
  TRACK 15 AUDIO
    TITLE "11:cjc041_1706"
    INDEX 01 00:14:02
  TRACK 16 AUDIO
    TITLE "0:"
    INDEX 01 00:16:38
  TRACK 17 AUDIO
    TITLE "10:cjc041_1707"
    INDEX 01 00:17:18
  TRACK 18 AUDIO
    TITLE "0:"
    INDEX 01 00:18:33
  TRACK 19 AUDIO
    TITLE "11:cjc041_1708"
    INDEX 01 00:19:11
  TRACK 20 AUDIO
    TITLE "0:"
    INDEX 01 00:20:36
  TRACK 21 AUDIO
    TITLE "10:cjc041_1709"
    INDEX 01 00:21:15
  TRACK 22 AUDIO
    TITLE "0:"
    INDEX 01 00:22:21
  TRACK 23 AUDIO
    TITLE "11:cjc041_1710"
    INDEX 01 00:22:72
  TRACK 24 AUDIO
    TITLE "0:"
    INDEX 01 00:24:27
  TRACK 25 AUDIO
    TITLE "10:cjc041_1711"
    INDEX 01 00:24:74
  TRACK 26 AUDIO
    TITLE "0:"
    INDEX 01 00:26:11
  TRACK 27 AUDIO
    TITLE "11:cjc041_1712"
    INDEX 01 00:26:62
  TRACK 28 AUDIO
    TITLE "0:"
    INDEX 01 00:30:71
  TRACK 29 AUDIO
    TITLE "10:cjc041_1713"
    INDEX 01 00:31:45
  TRACK 30 AUDIO
    TITLE "0:"
    INDEX 01 00:32:52
  TRACK 31 AUDIO
    TITLE "11:cjc041_1714"
    INDEX 01 00:33:24
  TRACK 32 AUDIO
    TITLE "0:"
    INDEX 01 00:34:20
  TRACK 33 AUDIO
    TITLE "10:cjc041_1715"
    INDEX 01 00:35:00
  TRACK 34 AUDIO
    TITLE "0:"
    INDEX 01 00:36:27
  TRACK 35 AUDIO
    TITLE "11:cjc041_1716"
    INDEX 01 00:37:03
  TRACK 36 AUDIO
    TITLE "0:"
    INDEX 01 00:38:31
  TRACK 37 AUDIO
    TITLE "10:cjc041_1717"
    INDEX 01 00:39:11
  TRACK 38 AUDIO
    TITLE "0:"
    INDEX 01 00:40:19
  TRACK 39 AUDIO
    TITLE "11:cjc041_1718"
    INDEX 01 00:40:72
  TRACK 40 AUDIO
    TITLE "0:"
    INDEX 01 00:43:33
  TRACK 41 AUDIO
    TITLE "10:cjc041_1719"
    INDEX 01 00:44:12
  TRACK 42 AUDIO
    TITLE "0:"
    INDEX 01 00:45:35
  TRACK 43 AUDIO
    TITLE "11:cjc041_1720"
    INDEX 01 00:46:09
  TRACK 44 AUDIO
    TITLE "0:"
    INDEX 01 00:48:22
  TRACK 45 AUDIO
    TITLE "10:cjc041_1721"
    INDEX 01 00:48:69
  TRACK 46 AUDIO
    TITLE "0:"
    INDEX 01 00:50:17
  TRACK 47 AUDIO
    TITLE "11:cjc041_1722"
    INDEX 01 00:50:68
  TRACK 48 AUDIO
    TITLE "0:"
    INDEX 01 00:52:20
  TRACK 49 AUDIO
    TITLE "10:cjc041_1723"
    INDEX 01 00:52:71
  TRACK 50 AUDIO
    TITLE "0:"
    INDEX 01 00:54:29
  TRACK 51 AUDIO
    TITLE "11:cjc041_1724"
    INDEX 01 00:55:03
  TRACK 52 AUDIO
    TITLE "0:"
    INDEX 01 00:56:39
  TRACK 53 AUDIO
    TITLE "10:cjc041_1725"
    INDEX 01 00:57:13
  TRACK 54 AUDIO
    TITLE "0:"
    INDEX 01 00:58:30
  TRACK 55 AUDIO
    TITLE "11:cjc041_1726"
    INDEX 01 00:59:08
  TRACK 56 AUDIO
    TITLE "0:"
    INDEX 01 01:04:11
  TRACK 57 AUDIO
    TITLE "10:cjc041_1727"
    INDEX 01 01:04:62
  TRACK 58 AUDIO
    TITLE "0:"
    INDEX 01 01:06:04
  TRACK 59 AUDIO
    TITLE "11:cjc041_1728"
    INDEX 01 01:06:53
  TRACK 60 AUDIO
    TITLE "0:"
    INDEX 01 01:07:64
  TRACK 61 AUDIO
    TITLE "10:cjc041_1729"
    INDEX 01 01:08:42
  TRACK 62 AUDIO
    TITLE "0:"
    INDEX 01 01:09:59
  TRACK 63 AUDIO
    TITLE "11:cjc041_1730"
    INDEX 01 01:10:33
  TRACK 64 AUDIO
    TITLE "0:"
    INDEX 01 01:11:64
